<?xml version="1.0" encoding="iso-8859-1"?>
<!-- Generator: Adobe Illustrator 19.0.0, SVG Export Plug-In . SVG Version: 6.00 Build 0)  -->
<svg version="1.1" id="Capa_1" xmlns="http://www.w3.org/2000/svg" xmlns:xlink="http://www.w3.org/1999/xlink" x="0px" y="0px"
	 viewBox="0 0 395.947 395.947" style="enable-background:new 0 0 395.947 395.947;" xml:space="preserve">
<rect x="6.827" y="143.36" style="fill:#FFFFFF;" width="382.293" height="238.933"/>
<path style="fill:#602F75;" d="M389.12,389.12H6.827c-3.768,0-6.827-3.055-6.827-6.827V143.36c0-3.772,3.058-6.827,6.827-6.827
	H389.12c3.768,0,6.827,3.055,6.827,6.827v238.933C395.947,386.065,392.888,389.12,389.12,389.12z M13.653,375.467h368.64v-225.28
	H13.653V375.467z"/>
<path style="fill:#EA3457;" d="M185.638,371.18c-0.215,0-0.437-0.007-0.659-0.034c-3.755-0.358-6.502-3.693-6.144-7.448
	c0.597-6.182,1.314-15.814,1.352-26.648c0.014-3.761,3.065-6.799,6.827-6.799c0.007,0,0.017,0,0.027,0
	c3.768,0.014,6.813,3.079,6.799,6.854c-0.044,11.353-0.792,21.439-1.413,27.901C192.085,368.541,189.112,371.18,185.638,371.18z
	 M185.518,316.641c-3.4,0-6.342-2.533-6.765-6.001c-1.174-9.581-3.065-18.026-5.629-25.095c-1.287-3.546,0.546-7.462,4.089-8.745
	c3.54-1.246,7.458,0.539,8.745,4.093c2.915,8.035,5.048,17.487,6.349,28.092c0.457,3.741-2.205,7.148-5.946,7.601
	C186.074,316.628,185.795,316.641,185.518,316.641z M165.048,267.254c-1.584,0-3.178-0.546-4.468-1.666l-0.997-0.833
	c-6.154-4.912-12.592-8.168-20.275-10.24c-3.639-0.986-5.792-4.734-4.809-8.373c0.98-3.645,4.717-5.799,8.369-4.813
	c9.424,2.546,17.678,6.721,25.231,12.752c0.478,0.379,0.952,0.782,1.423,1.188c2.85,2.475,3.157,6.779,0.689,9.632
	C168.861,266.452,166.96,267.254,165.048,267.254z M114.111,250.853c-0.256,0-0.512-0.014-0.771-0.041
	c-11.179-1.26-20.367-3.4-28.884-9.793c-3.017-2.26-3.625-6.54-1.362-9.561c2.256-3.014,6.547-3.622,9.557-1.359
	c6.065,4.553,12.998,6.106,22.211,7.141c3.748,0.42,6.444,3.799,6.025,7.547C120.497,248.272,117.538,250.853,114.111,250.853z
	 M72.987,220.454c-2.768,0-5.369-1.693-6.397-4.441c-2.13-5.7-3.209-11.575-3.209-17.452c0.003-4.499,0.635-9.052,1.877-13.554
	c1-3.632,4.734-5.762,8.397-4.765c3.632,1,5.765,4.762,4.765,8.393c-0.915,3.321-1.379,6.666-1.382,9.933
	c0,4.233,0.788,8.499,2.348,12.674c1.318,3.526-0.478,7.462-4.007,8.779C74.588,220.314,73.779,220.454,72.987,220.454z
	 M84.934,169.906c-1.543,0-3.092-0.519-4.369-1.587c-2.895-2.413-3.284-6.714-0.87-9.612c10.086-12.093,21.251-19.401,21.719-19.705
	c3.157-2.055,7.38-1.154,9.434,2.007c2.058,3.154,1.161,7.38-1.993,9.441c-0.096,0.068-9.967,6.567-18.674,17.005
	C88.829,169.073,86.886,169.906,84.934,169.906z"/>
<path style="fill:#00E7FF;" d="M161.888,324.338c-9.257,0-18.391-1.225-27.232-3.748c-15.343-4.386-28.372-10.667-40.967-16.739
	c-21.204-10.226-39.513-19.04-63.273-16.128c-3.703,0.526-7.151-2.195-7.612-5.939c-0.461-3.741,2.202-7.148,5.939-7.608
	c27.737-3.454,48.698,6.68,70.878,17.374c12.08,5.827,24.569,11.848,38.789,15.906c43.223,12.36,95.133-11.281,129.099-58.839
	c25.661-35.912,74.762-29.914,101.751-23.139c3.656,0.915,5.878,4.625,4.956,8.281c-0.918,3.659-4.632,5.868-8.284,4.96
	c-23.607-5.926-66.355-11.5-87.313,17.835C248.067,299.332,203.732,324.338,161.888,324.338z"/>
<path style="fill:#00E7FF;" d="M154.129,220.686c-25.832,0-43.848-9.161-62.799-24.194c-2.953-2.342-3.447-6.632-1.106-9.588
	c2.348-2.953,6.642-3.454,9.595-1.106c25.576,20.279,49.381,32.567,123.129,5.762c54.262-19.732,114.637-13.766,145.797-8.462
	c3.717,0.635,6.216,4.154,5.584,7.875c-0.635,3.714-4.127,6.226-7.878,5.581c-29.822-5.065-87.531-10.813-138.837,7.834
	C196.519,215.692,173.193,220.686,154.129,220.686z"/>
<g>
	<path style="fill:#EA3457;" d="M246.801,367.493c-1.212,0-2.444-0.321-3.553-1c-3.215-1.966-4.229-6.175-2.263-9.387
		c1.847-3.021,3.721-5.932,5.615-8.745c2.109-3.12,6.345-3.932,9.479-1.84c3.123,2.113,3.946,6.352,1.84,9.479
		c-1.785,2.639-3.546,5.379-5.287,8.226C251.344,366.333,249.098,367.493,246.801,367.493z M268.899,337.415
		c-1.608,0-3.215-0.567-4.516-1.714c-2.826-2.492-3.092-6.806-0.597-9.632c6.366-7.206,13.182-13.855,20.265-19.76
		c2.898-2.413,7.192-2.034,9.615,0.867c2.413,2.895,2.028,7.199-0.87,9.612c-6.55,5.468-12.868,11.626-18.777,18.319
		C272.671,336.633,270.79,337.415,268.899,337.415z M310.743,302.715c-2.352,0-4.642-1.219-5.908-3.4
		c-1.894-3.26-0.782-7.441,2.478-9.332c8.277-4.799,16.971-8.854,25.842-12.032c3.553-1.273,7.458,0.573,8.731,4.12
		c1.273,3.553-0.573,7.462-4.123,8.735c-8.093,2.901-16.032,6.601-23.596,10.994C313.085,302.421,311.907,302.715,310.743,302.715z
		 M361.875,284.447c-3.311,0-6.216-2.413-6.738-5.786c-0.573-3.727,1.98-7.212,5.707-7.786c6.919-1.065,13.691-1.608,20.122-1.608
		c5.478,0,8.69,0.399,9.035,0.447c3.741,0.488,6.373,3.912,5.888,7.653c-0.488,3.734-3.939,6.308-7.642,5.888
		c-0.14-0.02-2.785-0.335-7.281-0.335c-3.942,0-10.278,0.253-18.039,1.447C362.571,284.419,362.223,284.447,361.875,284.447z"/>
	<path style="fill:#EA3457;" d="M88.747,13.653c-32.676,0-59.163,26.487-59.163,59.163s59.163,104.677,59.163,104.677
		s59.163-72.001,59.163-104.677S121.423,13.653,88.747,13.653z M88.747,100.123c-17.596,0-31.857-14.264-31.857-31.857
		S71.154,36.41,88.747,36.41c17.596,0,31.857,14.264,31.857,31.857S106.342,100.123,88.747,100.123z"/>
</g>
<path style="fill:#602F75;" d="M88.747,184.32c-2.045,0-3.977-0.915-5.274-2.492c-6.216-7.561-60.716-74.875-60.716-109.008
	c0-36.386,29.604-65.993,65.99-65.993s65.99,29.607,65.99,65.993c0,34.133-54.501,101.448-60.716,109.008
	C92.723,183.405,90.788,184.32,88.747,184.32z M88.747,20.48c-28.86,0-52.337,23.48-52.337,52.34
	c0,22.412,33.969,70.345,52.337,93.754c18.367-23.412,52.337-71.359,52.337-93.754C141.083,43.96,117.606,20.48,88.747,20.48z
	 M88.747,106.953c-21.33,0-38.683-17.353-38.683-38.687S67.417,29.58,88.747,29.58s38.683,17.353,38.683,38.687
	S110.077,106.953,88.747,106.953z M88.747,43.233c-13.8,0-25.03,11.226-25.03,25.033S74.947,93.3,88.747,93.3
	s25.03-11.226,25.03-25.033S102.547,43.233,88.747,43.233z"/>
<path style="fill:#FFE600;" d="M314.027,68.267c-32.676,0-59.163,26.487-59.163,59.163s59.163,104.677,59.163,104.677
	s59.163-72.001,59.163-104.677S346.703,68.267,314.027,68.267z M314.027,154.737c-17.596,0-31.857-14.264-31.857-31.857
	s14.264-31.857,31.857-31.857c17.596,0,31.857,14.264,31.857,31.857S331.622,154.737,314.027,154.737z"/>
<path style="fill:#602F75;" d="M314.027,238.933c-2.045,0-3.977-0.915-5.274-2.492c-6.216-7.561-60.716-74.875-60.716-109.008
	c0-36.386,29.604-65.993,65.99-65.993s65.99,29.607,65.99,65.993c0,34.133-54.501,101.448-60.716,109.008
	C318.003,238.019,316.068,238.933,314.027,238.933z M314.027,75.093c-28.86,0-52.337,23.48-52.337,52.34
	c0,22.412,33.97,70.345,52.337,93.754c18.367-23.412,52.337-71.359,52.337-93.754C366.363,98.574,342.886,75.093,314.027,75.093z
	 M314.027,161.567c-21.33,0-38.683-17.353-38.683-38.687s17.353-38.687,38.683-38.687s38.683,17.353,38.683,38.687
	S335.357,161.567,314.027,161.567z M314.027,97.847c-13.8,0-25.03,11.226-25.03,25.033s11.23,25.033,25.03,25.033
	s25.03-11.226,25.03-25.033S327.827,97.847,314.027,97.847z"/>
<g>
</g>
<g>
</g>
<g>
</g>
<g>
</g>
<g>
</g>
<g>
</g>
<g>
</g>
<g>
</g>
<g>
</g>
<g>
</g>
<g>
</g>
<g>
</g>
<g>
</g>
<g>
</g>
<g>
</g>
</svg>
